#N canvas 726 69 859 822 12;
#X obj 20 43 oscparse;
#X obj 16 76 list trim;
#X obj 20 12 netreceive -u -b 11111;
#X obj 10 165 route humidity temperature stress;
#X connect 0 0 1 0;
#X connect 1 0 3 0;
#X connect 2 0 0 0;
