#N canvas 4 52 1366 677 12;
#X obj 28 73 netreceive -u -b 5580;
#X obj 28 104 oscparse;
#X obj 38 173 list trim;
#X msg 28 43 listen 5580;
#X obj 28 15 loadbang;
#X obj 573 409 print;
#X obj 24 284 send red;
#X obj 555 28 receive red;
#X obj 104 222 route red green blue brightness contrast motion texture;
#X obj 62 358 send green;
#X obj 142 317 send blue;
#X obj 207 365 send brightness;
#X obj 265 321 send contrast;
#X obj 361 372 send motion;
#X obj 404 316 send texture;
#X obj 578 68 receive green;
#X obj 597 115 receive blue;
#X obj 607 159 receive brightness;
#X obj 621 201 receive contrast;
#X obj 630 243 receive motion;
#X obj 638 287 receive texture;
#X connect 0 0 1 0;
#X connect 1 0 2 0;
#X connect 2 0 8 0;
#X connect 3 0 0 0;
#X connect 4 0 3 0;
#X connect 7 0 5 0;
#X connect 8 0 6 0;
#X connect 8 1 9 0;
#X connect 8 2 10 0;
#X connect 8 3 11 0;
#X connect 8 4 12 0;
#X connect 8 5 13 0;
#X connect 8 6 14 0;
#X connect 15 0 5 0;
#X connect 16 0 5 0;
#X connect 17 0 5 0;
#X connect 18 0 5 0;
#X connect 19 0 5 0;
#X connect 20 0 5 0;
