#N canvas 726 69 859 822 12;
#X obj 36 43 oscparse;
#X obj 40 75 list trim;
#X obj 20 12 netreceive -u -b 11111;
#X obj 40 122 route humidity temperature stress;
#X obj 200 200 osc~ 660;
#X obj 200 230 *~ 0.3;
#X obj 200 260 dac~;
#X obj 360 200 phasor~ 330;
#X obj 360 230 *~ 2;
#X obj 360 260 -~ 1;
#X obj 360 290 *~ 0.4;
#X obj 360 320 dac~;
#X obj 520 180 / 100;
#X obj 520 200 noise~;
#X obj 520 230 *~;
#X obj 520 260 lop~ 1500;
#X obj 520 290 hip~ 400;
#X obj 520 320 dac~;
#X obj 680 200 osc~ 880;
#X obj 680 230 *~ 0.35;
#X obj 680 260 dac~;
#X obj 840 200 osc~ 1100;
#X obj 840 230 *~ 0.3;
#X obj 840 260 dac~;
#X connect 0 0 1 0;
#X connect 1 0 3 0;
#X connect 2 0 0 0;
#X connect 3 0 12 0;
#X connect 3 1 4 0;
#X connect 3 1 18 0;
#X connect 3 2 7 0;
#X connect 3 2 21 0;
#X connect 4 0 5 0;
#X connect 5 0 6 0;
#X connect 5 0 6 1;
#X connect 7 0 8 0;
#X connect 8 0 9 0;
#X connect 9 0 10 0;
#X connect 10 0 11 0;
#X connect 10 0 11 1;
#X connect 12 0 14 0;
#X connect 13 0 14 1;
#X connect 14 0 15 0;
#X connect 15 0 16 0;
#X connect 16 0 17 0;
#X connect 16 0 17 1;
#X connect 18 0 19 0;
#X connect 19 0 20 0;
#X connect 19 0 20 1;
#X connect 21 0 22 0;
#X connect 22 0 23 0;
#X connect 22 0 23 1;
